<svg version="1.1" id="Layer_1" xmlns="http://www.w3.org/2000/svg" xmlns:xlink="http://www.w3.org/1999/xlink" x="0px" y="0px"
	 width="100%" viewBox="0 0 800 704" enable-background="new 0 0 800 704" xml:space="preserve">
<path fill="#ff6565" opacity="1.000000" stroke="none" 
	d="
M218.266327,369.000061 
	C218.267990,414.827698 218.352692,460.155701 218.155823,505.482483 
	C218.133408,510.643158 219.725311,511.920685 224.682953,511.905182 
	C274.676178,511.748566 324.670105,511.789459 374.663696,511.872498 
	C378.600403,511.879059 380.848083,511.244019 380.844666,506.485657 
	C380.841370,501.880096 378.499207,501.395020 374.896088,501.286560 
	C351.057526,500.568909 327.957703,496.257721 306.046570,486.553192 
	C297.148315,482.612152 289.017395,477.487000 282.277985,470.313263 
	C276.050537,463.684448 272.867340,455.879761 272.863007,446.810455 
	C272.837860,393.983765 272.810211,341.157074 272.848450,288.330414 
	C272.857361,276.012268 278.899658,266.760223 288.394592,259.561584 
	C304.595245,247.278915 323.429321,241.494797 343.064819,237.758835 
	C361.974243,234.161041 381.082642,232.993759 400.254547,233.927521 
	C427.001495,235.230209 453.239197,239.144852 477.417206,251.751587 
	C483.502686,254.924652 489.180389,258.695953 494.138580,263.471832 
	C501.310669,270.380219 505.261414,278.735535 505.258301,288.792419 
	C505.242096,341.452454 505.223022,394.112488 505.175110,446.772522 
	C505.165833,456.970581 501.412384,465.524170 493.809601,472.430542 
	C488.839508,476.945374 483.457062,480.812378 477.460876,483.812195 
	C473.086273,486.000763 468.625763,484.773560 466.189911,480.806793 
	C463.758667,476.847687 464.405914,472.831787 468.391205,469.785675 
	C472.086121,466.961548 476.222382,464.706940 479.862915,461.821320 
	C485.633392,457.247467 489.177002,451.542786 488.174469,443.680908 
	C487.401825,437.621552 489.092194,431.435547 487.848083,425.720337 
	C421.873932,456.333374 356.317230,456.023346 290.165802,425.844330 
	C289.226868,426.989319 289.447906,429.209991 289.432617,431.325104 
	C289.402557,435.489899 289.748077,439.670013 289.502380,443.817963 
	C289.022369,451.921204 292.574982,457.906555 298.688782,462.738464 
	C308.166260,470.228760 319.262390,474.357178 330.662903,477.566315 
	C351.812744,483.519775 373.527344,485.559509 395.399323,484.834320 
	C410.493744,484.333862 425.628937,483.281006 440.319611,479.126770 
	C443.029663,478.360413 445.771729,477.740021 448.652161,477.634033 
	C453.413513,477.458862 456.431793,479.625000 457.371216,484.107056 
	C458.309265,488.582458 456.341858,491.937073 452.047974,493.652405 
	C444.404327,496.705933 436.216553,497.460083 428.221069,498.920715 
	C419.551483,500.504486 410.775940,501.650696 401.916840,501.293243 
	C397.931671,501.132416 397.284637,503.252045 397.272217,506.600861 
	C397.259796,509.950409 397.856537,511.857086 401.882843,511.848297 
	C453.042877,511.736664 504.203186,511.714844 555.363220,511.792175 
	C559.583740,511.798584 559.772766,509.543701 559.766418,506.388214 
	C559.712830,479.725006 559.732727,453.061646 559.729614,426.398346 
	C559.726257,398.068542 559.721375,369.738770 559.719543,341.408966 
	C559.719421,339.742615 559.657715,338.070801 559.767517,336.410980 
	C560.105469,331.303711 563.587891,327.803253 568.295105,327.751190 
	C572.697327,327.702515 576.707947,331.531525 577.151306,336.269226 
	C577.259644,337.426453 577.195007,338.600647 577.194885,339.767059 
	C577.190674,398.759644 577.189697,457.752228 577.173889,516.744812 
	C577.171448,525.758301 573.962341,528.967224 564.757263,528.970642 
	C513.263733,528.989807 461.770172,528.967773 410.276642,528.960083 
	C407.610352,528.959656 404.937073,529.084595 402.279480,528.933105 
	C398.725006,528.730530 397.284393,530.038879 397.213318,533.808350 
	C396.951111,547.709534 396.833435,547.707092 410.664124,547.705200 
	C414.830261,547.704651 418.997223,547.654663 423.162384,547.718628 
	C430.210388,547.826782 433.216553,550.803528 433.302521,557.725891 
	C433.354279,561.891479 433.498444,566.067383 433.276123,570.221252 
	C433.097626,573.555969 434.522491,574.712219 437.645844,574.626160 
	C440.975616,574.534546 444.310669,574.645264 447.643402,574.645630 
	C496.970551,574.651184 546.297668,574.666687 595.624817,574.633545 
	C600.284241,574.630432 604.942261,574.236694 609.603088,574.170471 
	C613.699768,574.112183 617.621765,574.667969 620.228027,578.445251 
	C623.787537,583.604126 620.819153,590.439087 614.586853,591.234070 
	C612.779785,591.464600 610.926331,591.362061 609.094177,591.362061 
	C553.101196,591.362122 497.108185,591.356323 441.115204,591.349976 
	C433.315216,591.349060 433.314514,591.345520 433.307098,599.354065 
	C433.304504,602.187012 433.315826,605.020081 433.304260,607.852966 
	C433.273224,615.462402 430.205902,618.680359 422.435516,618.896362 
	C416.607300,619.058411 410.771301,618.944214 404.938751,618.944336 
	C389.107391,618.944519 373.275970,618.972351 357.444733,618.925781 
	C347.596832,618.896790 344.740784,615.947021 344.730408,606.034912 
	C344.727081,602.868652 344.540405,599.688660 344.772858,596.539673 
	C345.055542,592.710449 343.786774,591.055969 339.705170,591.290222 
	C334.556244,591.585693 329.377258,591.354614 324.211243,591.354919 
	C272.551025,591.357788 220.890839,591.361084 169.230637,591.365723 
	C160.211365,591.366516 155.758179,588.562073 155.973862,583.006775 
	C156.187057,577.516357 160.749512,574.774414 169.634537,574.778198 
	C225.627518,574.802063 281.620483,574.825256 337.613464,574.842163 
	C344.698730,574.844299 344.698517,574.826538 344.705688,567.672668 
	C344.709198,564.173157 344.631592,560.671143 344.735809,557.174622 
	C344.915771,551.137512 347.986420,547.928101 354.040558,547.780945 
	C361.202271,547.606750 368.375671,547.564148 375.534912,547.774597 
	C379.476196,547.890442 381.011627,546.376343 380.731812,542.515747 
	C380.551666,540.029785 380.469696,537.489136 380.772186,535.025635 
	C381.389526,529.998108 379.062378,528.883362 374.442413,528.895081 
	C320.949463,529.030701 267.456085,529.001282 213.962799,529.007080 
	C203.700455,529.008240 200.849777,526.163818 200.848465,516.014099 
	C200.840927,458.021362 200.832047,400.028625 200.824539,342.035889 
	C200.824326,340.369446 200.771637,338.700043 200.850754,337.037140 
	C201.122543,331.324951 204.729858,327.623840 209.836761,327.756287 
	C214.773651,327.884277 218.167145,331.445129 218.228622,337.019012 
	C218.344391,347.511566 218.264526,358.006226 218.266327,369.000061 
M316.513336,263.014374 
	C308.758423,266.535797 301.081177,270.179169 295.137543,276.559631 
	C288.529541,283.653320 288.517242,290.766998 295.207031,297.729980 
	C302.322235,305.135742 311.326324,309.371704 320.818451,312.744141 
	C342.077698,320.297302 364.031158,322.927002 386.531250,323.033051 
	C410.688721,323.146912 434.371185,320.881317 457.238556,312.720734 
	C466.857025,309.288239 476.056274,305.017944 483.212555,297.365204 
	C489.479492,290.663544 489.545227,283.759430 483.353180,276.934113 
	C479.382172,272.557068 474.581146,269.280792 469.296509,266.694244 
	C451.879364,258.169586 433.343109,253.840149 414.130249,252.200592 
	C381.149536,249.386124 348.613220,250.854309 316.513336,263.014374 
M299.168762,355.348572 
	C301.092041,356.662079 302.945221,358.095215 304.949524,359.270569 
	C324.085693,370.492493 345.441498,374.515839 366.965759,376.337433 
	C387.650665,378.088043 408.514587,377.800598 429.155029,373.838165 
	C445.599670,370.681152 461.645203,366.649231 475.897614,357.427307 
	C481.923431,353.528351 487.194397,348.703705 488.178284,341.212006 
	C489.234924,333.166260 488.654327,325.025482 488.401642,316.249023 
	C457.516296,335.304932 424.039581,340.420380 389.267426,340.393280 
	C354.577789,340.366241 321.106628,335.410004 290.005676,316.478027 
	C290.005676,323.359924 290.278107,329.324890 289.939453,335.254944 
	C289.474640,343.394806 292.126801,349.934875 299.168762,355.348572 
M465.923553,381.497986 
	C406.123688,401.237701 347.533966,399.664001 290.104584,371.720398 
	C289.185638,378.615509 290.249237,385.750763 289.955383,392.854614 
	C289.757965,397.627686 291.629028,401.617493 294.766479,405.070648 
	C297.932495,408.555115 301.686432,411.307678 305.796814,413.569000 
	C324.996033,424.131378 345.990997,427.985870 367.463654,430.091034 
	C388.473175,432.150818 409.388611,431.016815 430.125244,427.543030 
	C445.926483,424.896027 461.298676,420.522247 475.053070,411.836060 
	C480.323975,408.507294 485.602509,404.684235 487.119934,398.391663 
	C489.264008,389.500519 487.970459,380.378967 487.779266,370.498627 
	C480.206909,374.435822 473.926056,378.870270 465.923553,381.497986 
M415.992340,584.498657 
	C415.967957,579.339172 415.897919,574.179260 415.937988,569.020264 
	C415.958893,566.328430 414.822815,565.057556 412.070129,565.064575 
	C396.757935,565.103516 381.445648,565.108032 366.133453,565.077759 
	C363.508942,565.072571 362.066193,566.030701 362.077362,568.844971 
	C362.115692,578.498047 362.121979,588.151489 362.077515,597.804504 
	C362.065002,600.524048 363.212952,601.680603 365.977509,601.671082 
	C381.289734,601.618103 396.602417,601.616028 411.914490,601.693176 
	C414.953705,601.708496 416.070648,600.406860 415.990936,597.479980 
	C415.882324,593.488708 415.981628,589.491699 415.992340,584.498657 
z"/>
<path fill="#ff6565" opacity="1.000000" stroke="none" 
	d="
M203.760956,291.760986 
	C246.917358,248.644821 289.834381,205.789322 332.732574,162.915024 
	C348.405579,147.250732 364.036133,131.543991 379.681610,115.852173 
	C387.248138,108.263268 390.874634,108.301743 398.368408,115.838371 
	C427.029541,144.663422 455.677765,173.501526 484.414886,202.250748 
	C514.912598,232.761368 545.517151,263.165100 576.051025,293.639557 
	C586.660828,304.228729 597.225403,314.863556 607.760681,325.526917 
	C615.561829,333.422974 627.100525,334.235870 634.699036,327.326752 
	C642.235168,320.474365 642.461182,308.664246 634.518738,300.562622 
	C615.972473,281.644653 597.136047,263.011047 578.407532,244.271835 
	C520.690186,186.521439 462.955444,128.788406 405.259460,71.016663 
	C394.132660,59.875263 383.946838,59.841423 372.871307,70.934914 
	C330.858612,113.015717 288.804779,155.055450 246.764709,197.108948 
	C232.514145,211.364075 218.250534,225.606186 204.013123,239.874435 
	C201.282410,242.611084 198.305313,244.592941 194.243866,243.253983 
	C187.939713,241.175613 186.407242,233.521896 191.488220,228.141266 
	C198.006927,221.238098 204.828018,214.619644 211.543884,207.903580 
	C261.146912,158.299225 310.792786,108.737587 360.344360,59.081894 
	C378.572174,40.815788 398.977509,40.538311 417.227936,58.751186 
	C455.671204,97.115410 494.064789,135.529465 532.466370,173.935425 
	C570.280579,211.753922 608.102905,249.564255 645.875671,287.424072 
	C666.506653,308.102661 659.370972,339.451416 631.793762,348.002319 
	C618.640076,352.080933 606.670105,348.459137 596.868286,338.813293 
	C581.194580,323.388916 565.733643,307.748474 550.173462,292.208618 
	C509.616180,251.704269 469.044586,211.214264 428.499451,170.697754 
	C416.477875,158.684616 404.531586,146.596146 392.529999,134.562958 
	C391.493774,133.524033 390.662872,132.185043 387.818878,131.474670 
	C381.712860,137.773346 375.220612,144.635452 368.551849,151.321457 
	C337.253601,182.700790 305.909454,214.034348 274.576447,245.378983 
	C243.608505,276.358459 212.647980,307.345367 181.657730,338.302490 
	C162.603607,357.336273 131.866013,350.998993 122.490730,325.795563 
	C117.294922,311.827728 120.896675,299.096252 131.049622,288.538025 
	C143.289627,275.809448 155.957016,263.490906 168.484772,251.040527 
	C172.591995,246.958710 178.429916,246.437332 181.876984,249.666443 
	C185.569397,253.125381 185.129044,258.783234 180.615173,263.316711 
	C168.506409,275.478088 156.271637,287.514435 144.207352,299.719482 
	C137.627457,306.376160 135.954956,316.237061 139.912079,323.058472 
	C146.218048,333.928894 159.819351,335.524078 169.216858,326.287415 
	C180.743118,314.958496 192.089783,303.446838 203.760956,291.760986 
z"/>
<path fill="#ff6565" opacity="1.000000" stroke="none" 
	d="
M392.177917,473.834076 
	C386.496460,471.469055 384.452362,467.474121 386.469177,463.379547 
	C388.412262,459.434662 393.401215,457.955872 397.043579,460.315857 
	C399.664185,462.013885 400.869781,464.642883 400.335785,467.586334 
	C399.589630,471.699158 396.748566,473.751770 392.177917,473.834076 
z"/>
<path fill="#ff6565" opacity="1.000000" stroke="none" 
	d="
M413.398560,463.825745 
	C416.915222,458.703918 420.063690,457.716827 423.839661,460.230743 
	C427.249939,462.501099 428.377625,466.982941 426.369324,470.284332 
	C424.412842,473.500549 420.099030,474.830322 416.778687,473.037994 
	C413.223602,471.118958 412.124237,468.062622 413.398560,463.825745 
z"/>
<path fill="#ff6565" opacity="1.000000" stroke="none" 
	d="
M369.062073,459.726318 
	C374.177612,464.012634 374.724457,469.442749 370.549530,472.310974 
	C367.715118,474.258270 364.620789,474.579834 361.822449,472.313873 
	C358.948761,469.986938 358.012421,466.867676 359.750702,463.477661 
	C361.604614,459.862213 364.519714,458.101959 369.062073,459.726318 
z"/>
<path fill="#ff6565" opacity="1.000000" stroke="none" 
	d="
M392.997437,366.258484 
	C387.325195,365.011078 385.101532,362.276001 385.863770,357.649689 
	C386.534973,353.575928 389.198914,351.697540 393.234619,351.704193 
	C397.698120,351.711578 399.876740,354.518036 400.653198,358.420959 
	C401.362549,361.986481 398.197113,365.188721 392.997437,366.258484 
z"/>
<path fill="#ff6565" opacity="1.000000" stroke="none" 
	d="
M427.264282,358.156311 
	C427.478607,362.422852 425.662506,365.002777 422.041931,365.984131 
	C418.996307,366.809692 416.060730,366.322479 414.130554,363.410370 
	C412.212372,360.516327 412.072479,357.527008 414.059204,354.589722 
	C415.729523,352.120178 418.205597,351.404541 421.008759,351.753296 
	C424.527161,352.191040 426.724152,354.119019 427.264282,358.156311 
z"/>
<path fill="#ff6565" opacity="1.000000" stroke="none" 
	d="
M370.727722,364.897705 
	C366.791046,366.918610 363.290710,367.089539 360.566437,363.722046 
	C358.417389,361.065674 358.106720,357.977173 360.002411,354.957642 
	C361.807587,352.082306 364.602203,351.293793 367.755646,351.846985 
	C373.534424,352.860748 375.098572,359.044769 370.727722,364.897705 
z"/>
<path fill="#ff6565" opacity="1.000000" stroke="none" 
	d="
M400.490479,411.449005 
	C399.649414,418.637207 394.929565,421.996765 389.936340,419.324615 
	C386.828979,417.661652 385.443146,414.954285 385.899078,411.477356 
	C386.374573,407.851318 388.878052,405.852173 392.207245,405.389130 
	C396.437103,404.800873 399.011230,407.252838 400.490479,411.449005 
z"/>
<path fill="#ff6565" opacity="1.000000" stroke="none" 
	d="
M413.205353,415.373352 
	C412.639740,408.107819 416.733093,403.781982 422.049011,405.600403 
	C425.533997,406.792542 427.425110,409.151703 427.321747,413.077118 
	C427.229462,416.582275 425.506317,418.717865 422.369232,419.700562 
	C418.320221,420.968872 415.226624,419.651367 413.205353,415.373352 
z"/>
<path fill="#ff6565" opacity="1.000000" stroke="none" 
	d="
M358.954590,413.766449 
	C359.718506,407.784363 362.767487,404.716339 366.956238,405.266876 
	C371.146729,405.817657 373.727997,409.422485 373.257965,413.941803 
	C372.863708,417.732666 370.424133,419.581818 367.027527,420.010162 
	C362.727081,420.552521 360.154541,418.209656 358.954590,413.766449 
z"/>
</svg>