<svg version="1.1" id="Layer_1" xmlns="http://www.w3.org/2000/svg" xmlns:xlink="http://www.w3.org/1999/xlink" x="0px" y="0px"
	 width="100%" viewBox="0 0 1024 1024" enable-background="new 0 0 1024 1024" xml:space="preserve">
<path fill="#ff6464" opacity="1.000000" stroke="none" 
	d="
M791.427002,617.398682 
	C791.394775,624.028381 791.411987,630.194092 791.342346,636.358826 
	C791.215515,647.581787 779.926880,654.879517 769.900085,649.881592 
	C766.528992,648.201355 763.951599,648.203369 760.627563,649.631226 
	C750.599304,653.938721 740.738342,651.779480 731.013916,648.201538 
	C722.917908,645.222717 715.226807,640.996460 706.412537,640.233398 
	C704.627136,640.078857 703.993469,638.702393 703.315308,637.333130 
	C701.911194,634.498352 700.516357,631.656799 699.020508,628.870239 
	C689.013916,610.229309 672.748169,601.680786 652.257874,600.406250 
	C647.396667,600.103821 645.364990,598.585632 645.640747,593.560242 
	C645.978088,587.412720 645.630188,581.230713 645.799133,575.069641 
	C645.882446,572.030762 644.960938,569.783875 642.068359,568.738831 
	C629.981506,564.372009 621.615417,555.946655 613.401306,546.138184 
	C595.763611,525.077148 572.137268,514.742737 544.708740,513.273621 
	C537.901550,512.908997 537.671448,512.849304 537.661316,506.151306 
	C537.621460,479.656830 537.381592,453.159393 537.689026,426.668549 
	C537.964539,402.918030 527.837769,385.795563 506.694977,375.082397 
	C505.250610,374.350555 503.503662,374.008331 502.313141,372.057526 
	C509.204407,372.057526 515.887573,371.618805 522.492432,372.151093 
	C535.270447,373.180878 535.185669,373.385315 539.313171,361.086975 
	C541.112427,355.725769 543.018982,350.375153 545.322754,345.218964 
	C546.552063,342.467560 546.284424,340.703949 544.183777,338.638336 
	C534.092529,328.715546 524.213684,318.575317 514.058960,308.718842 
	C504.634491,299.571167 504.208130,292.467407 513.495911,283.150299 
	C527.607849,268.993591 541.870239,254.984528 556.202332,241.050247 
	C565.243774,232.259781 575.354065,232.540359 584.362488,241.520355 
	C592.149719,249.283051 599.987671,256.996948 607.658081,264.873657 
	C610.275208,267.561096 612.426880,268.069977 615.798523,265.860992 
	C625.308594,259.630310 635.477295,254.582703 646.514526,251.687683 
	C650.787659,250.566849 651.834473,248.387863 651.755005,244.267410 
	C651.514038,231.774567 651.652710,219.274078 651.673706,206.776627 
	C651.692444,195.600388 657.448975,189.732941 668.539124,189.709961 
	C689.534180,189.666443 710.529358,189.699722 731.524475,189.693588 
	C743.511230,189.690079 749.213196,195.352692 749.281982,207.522125 
	C749.352600,220.019135 749.409180,232.517944 749.257324,245.013367 
	C749.215027,248.495117 750.029175,250.394104 753.779907,251.320084 
	C763.546509,253.731201 772.487305,258.312622 781.230774,263.146149 
	C785.020752,265.241333 787.571777,264.589691 790.436340,261.683258 
	C798.505554,253.495972 806.744751,245.475967 814.939209,237.412659 
	C818.410645,233.996826 822.085266,230.726242 827.048401,229.850006 
	C832.599243,228.870026 837.590088,230.242584 841.721863,234.336609 
	C857.343201,249.815460 873.099121,265.160126 888.596375,280.761963 
	C895.528931,287.741241 895.153015,296.256714 887.712708,303.763367 
	C878.683838,312.872742 869.456848,321.794434 860.078491,330.543213 
	C857.364929,333.074554 857.071228,335.106262 858.655701,338.316986 
	C862.711304,346.534698 866.188293,355.029510 868.819885,363.810699 
	C869.712463,366.789093 871.149963,367.730713 874.107483,367.714935 
	C886.936829,367.646423 899.767151,367.785065 912.597107,367.781311 
	C916.454529,367.780212 920.346069,367.944153 923.848267,369.510803 
	C930.596741,372.529510 933.063965,378.483887 933.097534,385.375977 
	C933.211182,408.703400 933.267395,432.033722 933.008484,455.359222 
	C932.873047,467.564331 926.699707,473.313538 914.615967,473.344360 
	C900.119019,473.381348 885.620544,473.437012 871.125732,473.249268 
	C867.420715,473.201294 865.355103,474.375519 863.953796,477.885101 
	C861.983582,482.819519 859.638428,487.636688 857.054199,492.281799 
	C855.390320,495.272522 855.678162,497.345306 858.046448,499.750275 
	C867.163208,509.008301 876.155701,518.389038 885.150818,527.766052 
	C887.106445,529.804749 889.113464,531.858826 890.694519,534.179810 
	C894.909180,540.366821 894.566528,547.175293 889.261353,552.416077 
	C873.380005,568.104431 857.457703,583.760254 841.199768,599.054993 
	C832.537476,607.204102 824.577759,606.554504 816.281677,598.058960 
	C806.038757,587.569763 795.765137,577.108521 785.668396,566.479797 
	C782.734314,563.391174 779.902893,562.709473 775.924255,564.299194 
	C768.663757,567.200562 761.291565,569.857422 753.681519,571.745483 
	C750.389099,572.562378 749.075745,574.582458 749.252380,577.931702 
	C749.418884,581.088806 749.216980,584.263611 749.300964,587.427307 
	C749.444763,592.839905 750.431702,593.407043 755.116089,590.929626 
	C760.268005,588.204956 765.398438,585.489441 771.264893,584.485657 
	C782.198242,582.614807 791.266235,589.934570 791.312439,600.972900 
	C791.334717,606.293762 792.310669,611.608643 791.427002,617.398682 
M668.831848,302.381622 
	C620.383240,319.401276 584.611511,372.315765 595.620300,428.638000 
	C605.311829,478.220978 648.402893,523.346924 711.249939,518.866272 
	C739.144836,516.877502 763.177185,506.755219 782.835266,486.697266 
	C808.598694,460.409698 818.567749,428.800537 813.753174,392.575806 
	C810.238708,366.133392 797.031677,344.556244 777.380737,327.185638 
	C746.127808,299.559235 710.457520,289.211182 668.831848,302.381622 
z"/>
<path fill="#ff6464" opacity="1.000000" stroke="none" 
	d="
M614.230957,624.824219 
	C617.611694,630.684143 622.358093,632.340088 628.673401,631.912048 
	C636.471191,631.383606 644.330688,631.713928 652.163025,631.761414 
	C662.565430,631.824402 667.033203,635.396851 669.359985,645.457581 
	C670.819824,651.769775 672.189148,658.102905 673.616943,664.422546 
	C674.356079,667.694092 676.154724,669.981262 679.258789,671.561951 
	C690.128906,677.097290 699.061218,684.988525 706.446228,694.662781 
	C712.439148,702.513428 716.692444,702.922363 724.145447,696.429810 
	C741.661438,681.171082 761.957642,677.287720 783.377197,684.891418 
	C805.027466,692.576965 818.161743,708.865356 822.438416,731.673340 
	C830.066406,772.354614 795.562561,804.877808 759.047546,802.245850 
	C751.715576,801.717407 744.454346,800.419434 737.879822,796.935242 
	C733.980530,794.868958 730.206848,794.971619 725.932556,795.293945 
	C716.922546,795.973267 710.733643,799.054077 705.704712,807.468018 
	C699.286255,818.207031 689.385620,826.312744 678.004822,832.081116 
	C675.133179,833.536560 673.960327,835.841553 673.374939,838.734009 
	C671.726379,846.879944 670.239502,855.064148 668.352966,863.154846 
	C666.413086,871.474182 661.583801,875.228210 653.015320,875.282654 
	C638.517029,875.374878 624.017395,875.359497 609.519043,875.268921 
	C601.764282,875.220459 597.202148,871.159302 595.687134,863.542786 
	C594.098328,855.554871 592.325439,847.603638 590.729858,839.617004 
	C590.028015,836.104004 588.222839,833.851562 584.971924,832.070618 
	C572.197144,825.072021 561.644836,815.535583 553.631165,803.290894 
	C551.258362,799.665283 549.040039,796.350708 543.875793,795.723938 
	C539.296753,795.168213 536.815491,791.352295 536.793945,786.676331 
	C536.691101,764.345520 536.680115,742.013977 536.739868,719.682922 
	C536.753418,714.632935 539.897278,711.720154 544.467102,710.467346 
	C547.823364,709.547302 549.687073,707.520264 551.273865,704.514954 
	C556.960632,693.744324 565.104065,685.016968 574.526550,677.385742 
	C576.086914,676.122070 579.672180,675.014709 577.256470,672.168091 
	C575.054199,669.572876 573.363708,665.360962 568.091553,667.757324 
	C560.510498,671.203308 552.563232,673.776306 544.140930,674.327942 
	C537.758484,674.746033 537.650085,674.692322 537.639648,668.468079 
	C537.588623,638.146179 537.621399,607.824158 537.574646,577.502258 
	C537.557983,566.675171 538.023743,555.837280 537.093201,545.025330 
	C536.703674,540.498108 538.141724,538.386597 543.220886,538.604248 
	C577.698975,540.082153 605.551636,561.817932 612.080505,596.344910 
	C613.441345,603.541016 613.764038,610.908691 612.227722,618.171753 
	C611.683960,620.742188 612.282227,622.739136 614.230957,624.824219 
M617.956604,717.393188 
	C600.277832,725.785278 592.489380,740.880127 596.341431,759.285645 
	C600.608459,779.673706 620.896729,791.646423 642.460510,786.501953 
	C661.193604,782.032776 673.180786,760.347717 667.770447,741.275574 
	C662.280457,721.922974 638.741577,708.520996 617.956604,717.393188 
z"/>
<path fill="#ff6464" opacity="1.000000" stroke="none" 
	d="
M166.684280,495.999878 
	C166.678650,470.676178 166.789749,445.851532 166.589432,421.029419 
	C166.536789,414.506378 168.873657,409.452759 173.461227,405.106903 
	C184.694305,394.465820 198.672958,389.092010 213.094894,384.818848 
	C236.135849,377.991943 259.836426,374.820892 283.713043,372.559052 
	C305.448364,370.500061 327.224731,369.666290 349.015106,370.050110 
	C384.296936,370.671570 419.481964,372.888611 454.025513,380.743866 
	C470.139954,384.408295 485.796631,389.477478 499.623383,399.042236 
	C508.132263,404.928314 512.706360,412.226532 512.511719,423.235107 
	C511.975739,453.547302 512.211548,483.875610 512.379944,514.196167 
	C512.422974,521.942627 509.345734,527.629578 503.211609,531.974426 
	C489.328491,541.808105 473.384399,546.544006 457.122192,550.316101 
	C408.870087,561.508423 359.794525,562.650452 310.650909,561.017822 
	C277.734833,559.924255 244.964279,556.506592 213.075760,547.423889 
	C201.028915,543.992615 189.292496,539.830200 178.679123,532.970215 
	C170.685364,527.803406 165.996613,520.952209 166.631958,510.990540 
	C166.938843,506.178772 166.684738,501.331238 166.684280,495.999878 
M337.522522,397.381866 
	C324.379150,397.737213 311.251221,398.348419 298.120911,399.095856 
	C273.323792,400.507355 248.834366,403.967163 224.613846,409.331207 
	C210.941345,412.359253 197.449783,416.121094 185.394562,423.584015 
	C180.415039,426.666687 180.458160,428.596100 184.937515,432.249146 
	C191.778702,437.828308 199.855774,441.043457 208.128799,443.606354 
	C242.220154,454.167389 277.409973,458.106415 312.845825,459.527161 
	C358.645142,461.363464 404.330963,459.770203 449.434143,450.595337 
	C463.425293,447.749237 477.545227,444.925995 490.053986,437.437408 
	C493.718933,435.243378 498.989655,433.012848 498.761536,428.612549 
	C498.521179,423.976593 493.033203,422.244904 488.982971,420.373535 
	C470.989746,412.059784 451.854462,408.166229 432.390259,405.052734 
	C401.267303,400.074402 369.976624,397.823730 337.522522,397.381866 
z"/>
<path fill="#ff6464" opacity="1.000000" stroke="none" 
	d="
M474.858215,736.305603 
	C460.606812,733.793152 446.778442,731.338074 432.950073,728.882935 
	C432.931732,728.585510 432.913361,728.288086 432.895020,727.990601 
	C439.831024,726.622314 446.764221,725.239624 453.703552,723.888733 
	C466.468201,721.403809 479.022156,718.186401 490.956207,712.913025 
	C494.040558,711.550110 496.592560,711.783875 499.188416,714.043823 
	C501.817322,716.332397 504.815308,718.194153 507.473267,720.452820 
	C510.832764,723.307434 512.320007,727.073303 512.314331,731.503235 
	C512.272705,764.158325 512.188354,796.813660 512.304321,829.468323 
	C512.331421,837.112183 508.078827,841.848877 502.468048,845.810120 
	C490.413025,854.320984 476.570770,858.702393 462.485199,862.180054 
	C437.236511,868.413818 411.522949,871.590698 385.593689,873.462158 
	C359.801147,875.323669 334.007996,875.599182 308.226074,874.150757 
	C272.977936,872.170471 237.891022,868.811462 204.161148,857.334839 
	C194.511459,854.051453 185.213333,849.966553 177.069397,843.668213 
	C170.227264,838.376770 166.537399,831.769836 166.616272,822.710388 
	C166.875870,792.889954 166.834229,763.064514 166.580841,733.243713 
	C166.521484,726.259766 169.262558,721.340149 174.850113,717.830566 
	C178.217239,715.715637 181.905823,714.106384 185.478500,712.327148 
	C187.378006,711.381104 189.323853,711.476318 191.277893,712.300049 
	C211.254791,720.722168 232.411407,724.128967 253.700287,726.981628 
	C255.472855,727.219116 257.220154,727.645203 259.033234,729.019958 
	C251.987411,730.121033 244.950989,731.286865 237.893845,732.309753 
	C223.097107,734.454529 208.194962,735.961182 193.630066,739.496948 
	C190.676956,740.213806 187.353989,740.532410 185.395981,743.801819 
	C187.555908,747.082764 190.930923,748.240845 194.097107,749.512146 
	C209.466019,755.683411 225.589844,758.900574 241.842758,761.690552 
	C285.712585,769.221436 329.986572,769.545105 374.243530,768.429565 
	C405.322021,767.646179 436.294861,764.634216 466.571472,756.812317 
	C475.130249,754.601135 483.516754,751.899841 491.341125,747.699768 
	C493.049500,746.782715 495.521149,746.101868 495.235657,743.704468 
	C494.973999,741.507385 492.643402,740.742676 490.746765,740.224792 
	C485.622192,738.825378 480.440369,737.635803 474.858215,736.305603 
z"/>
<path fill="#ff6464" opacity="1.000000" stroke="none" 
	d="
M512.286682,634.000000 
	C512.291565,643.666016 512.074097,652.839294 512.372192,661.995789 
	C512.599670,668.982422 509.819580,674.185974 504.509979,678.373840 
	C495.164978,685.744690 484.207184,689.701599 473.058319,693.207275 
	C451.851959,699.875488 430.026733,703.218079 407.964661,705.468811 
	C382.755005,708.040833 357.491180,709.486877 332.171661,709.008118 
	C290.659790,708.223145 249.416595,704.897949 209.282547,693.265991 
	C197.402740,689.822937 185.875153,685.498474 176.101715,677.533691 
	C169.908264,672.486389 166.714844,666.061096 166.722809,658.005737 
	C166.750824,629.674316 166.759201,601.342834 166.666718,573.011658 
	C166.652710,568.719971 167.773254,565.297913 171.247406,562.521118 
	C175.306976,559.276489 178.935425,558.187988 183.785461,561.481140 
	C195.700226,569.571228 209.595078,572.822144 223.231735,576.600281 
	C224.172867,576.861084 225.244064,576.778015 226.128571,578.402100 
	C215.019806,581.432129 203.725632,583.420715 192.228470,588.311829 
	C200.463821,592.879883 208.607086,594.619141 216.582626,596.556702 
	C242.665802,602.893311 269.216003,606.074158 295.974762,607.803223 
	C322.115173,609.492371 348.307983,609.395386 374.415527,608.421936 
	C408.985901,607.132812 443.501648,604.241089 476.661041,593.046021 
	C479.583130,592.059448 482.721039,591.365417 485.803558,588.307373 
	C474.974213,583.233093 463.602234,581.986328 452.205261,578.680603 
	C456.268982,576.377502 460.266418,575.960022 463.994141,574.851685 
	C476.137939,571.241150 488.301117,567.721680 499.177917,560.950195 
	C501.184265,559.701050 502.761261,559.981323 504.656525,561.229736 
	C510.011841,564.757324 512.340881,569.655884 512.314087,576.004272 
	C512.233276,595.169189 512.285706,614.334717 512.286682,634.000000 
z"/>
<path fill="#ff6464" opacity="1.000000" stroke="none" 
	d="
M345.633057,336.515961 
	C333.558807,330.804169 333.295502,330.738220 336.366791,318.476532 
	C338.509247,309.923218 337.218597,302.918182 330.436340,296.837921 
	C324.460052,291.480225 317.512970,293.219788 310.916260,293.620697 
	C301.583313,294.187866 300.480621,293.956085 297.140045,285.315399 
	C294.919525,279.571930 292.851440,273.769623 290.698425,267.999908 
	C289.289612,264.224457 290.180450,261.184998 293.453278,258.791138 
	C297.485138,255.842102 301.552795,252.932816 305.458374,249.822250 
	C312.878113,243.912888 313.319550,230.810135 306.288300,224.350449 
	C302.733948,221.085037 298.895447,218.130875 295.232727,214.980972 
	C290.529449,210.936188 290.042450,208.087921 293.118866,202.789307 
	C296.464264,197.027390 299.872528,191.301987 303.216309,185.539139 
	C305.710022,181.241257 308.745300,178.873566 314.252930,180.433960 
	C318.357330,181.596771 322.590973,182.672409 326.990082,182.702133 
	C338.775238,182.781815 347.647949,173.091141 346.570099,161.307419 
	C344.796387,141.916183 343.105835,145.404816 361.407013,139.499374 
	C365.201294,138.275055 369.158539,137.554001 372.947815,136.316620 
	C376.620605,135.117249 379.082092,136.469940 381.030853,139.413849 
	C383.329590,142.886414 385.454834,146.483841 387.909302,149.841461 
	C395.499542,160.224457 408.896240,161.639633 418.402496,153.095367 
	C420.998779,150.761826 423.416931,148.225037 425.851868,145.718399 
	C428.918396,142.561646 432.303925,141.847290 436.224976,144.051819 
	C442.468262,147.561981 448.725128,151.048203 454.991089,154.517761 
	C458.712280,156.578201 460.043793,159.334885 458.635681,163.643692 
	C457.143097,168.211243 456.117157,172.947708 455.133575,177.661758 
	C453.091400,187.449448 461.978546,198.514023 471.928802,198.663696 
	C476.593933,198.733887 481.266205,198.796036 485.925781,198.616989 
	C489.458282,198.481277 491.685211,200.048508 492.831055,203.194565 
	C496.025665,211.965591 498.377930,220.967209 499.769043,230.200897 
	C500.269501,233.522964 498.295715,235.469299 495.570251,236.857239 
	C491.413574,238.974030 487.373444,241.367111 483.083771,243.165833 
	C473.270691,247.280624 470.975922,260.483429 479.292145,267.415009 
	C482.603027,270.174622 485.365906,273.585175 488.440765,276.636383 
	C491.001312,279.177185 491.500458,281.770691 489.729218,285.115845 
	C485.904419,292.339417 481.756073,299.360443 477.367218,306.246277 
	C475.365540,309.386749 472.820679,310.831635 468.923401,309.495483 
	C464.684143,308.042114 460.285126,307.062225 455.990753,305.760498 
	C447.592529,303.214752 439.230011,310.069366 439.988739,318.376312 
	C440.442261,323.341461 440.092651,328.375153 440.385132,333.361511 
	C440.584839,336.767029 439.148285,338.757629 436.059692,339.710266 
	C428.109619,342.162384 420.152344,344.591919 412.181580,346.975830 
	C409.306000,347.835876 407.382202,346.335022 405.889923,344.088684 
	C403.033569,339.789032 400.411621,335.315643 397.317078,331.196320 
	C392.763977,325.135498 385.874115,324.370514 379.717682,328.788391 
	C375.413422,331.877106 372.720673,336.363007 369.594696,340.435242 
	C366.764740,344.121857 363.813660,344.803986 359.682800,342.712952 
	C355.234650,340.461304 350.556305,338.664429 345.633057,336.515961 
M398.129974,282.698425 
	C418.099091,280.985779 435.437500,262.150757 435.608337,241.984894 
	C435.842590,214.336609 407.615479,193.264175 381.024200,200.991898 
	C360.493195,206.958420 348.834839,227.323288 350.614197,244.544159 
	C352.956451,267.212799 371.017914,285.454559 398.129974,282.698425 
z"/>
</svg>