<?xml version="1.0" encoding="UTF-8"?>
<svg data-bbox="26.002 37.814 459.998 436.372" xmlns="http://www.w3.org/2000/svg" viewBox="0 0 512 512" height="800" width="800" data-type="color">
    <g>
        <path d="M87.382 302.592v-8.434c-2.618-.747-4.544-1.884-5.755-3.408-1.229-1.525-1.856-3.351-1.856-5.533 0-2.213.706-4.066 2.095-5.563 1.375-1.495 3.229-2.362 5.517-2.57v-2.004h2.931v2.004c2.137.238 3.857.985 5.131 2.182 1.253 1.196 2.078 2.812 2.421 4.815l-5.113.687c-.316-1.584-1.137-2.66-2.439-3.229v7.864c3.246.868 5.457 2.004 6.626 3.38 1.165 1.405 1.762 3.17 1.762 5.353 0 2.423-.748 4.486-2.211 6.13-1.495 1.676-3.544 2.692-6.177 3.111v3.768h-2.931v-3.707c-2.316-.301-4.201-1.138-5.636-2.573-1.467-1.435-2.379-3.499-2.783-6.101l5.236-.628c.207 1.077.628 2.003 1.225 2.781.582.777 1.224 1.315 1.957 1.675m54.412 25.329H45.679v25.749h96.115v-25.749zm3.769 33.075H92.931v25.748h96.115v-25.748h-43.483zm235.933-72.459h-10.841v84.51h10.841v-84.51zm-35.407 27.273h-10.841v57.237h10.841V315.81zm-35.407-66.031h-10.841v123.268h10.841V249.779zm-35.408 44.499h-10.841v78.769h10.841v-78.769zm-35.407 28.231h-10.841v50.538h10.841v-50.538zm127.111-41.329h18.183a3.675 3.675 0 0 1 3.678 3.679v91.868c0 2.004-1.643 3.678-3.678 3.678h-18.183c-2.019 0-3.679-1.674-3.679-3.678v-91.868a3.685 3.685 0 0 1 3.679-3.679zm-35.408 27.273h18.183a3.675 3.675 0 0 1 3.678 3.678v64.596c0 2.004-1.643 3.678-3.678 3.678H331.57c-2.018 0-3.678-1.674-3.678-3.678v-64.596a3.687 3.687 0 0 1 3.678-3.678zm-35.408-66.029h18.184a3.675 3.675 0 0 1 3.678 3.678v130.625c0 2.004-1.643 3.678-3.678 3.678h-18.184c-2.018 0-3.678-1.674-3.678-3.678V246.102a3.685 3.685 0 0 1 3.678-3.678zm-35.407 44.498h18.183a3.675 3.675 0 0 1 3.679 3.678v86.127c0 2.004-1.643 3.678-3.679 3.678h-18.183c-2.018 0-3.678-1.674-3.678-3.678V290.6a3.685 3.685 0 0 1 3.678-3.678zm-35.407 28.23h18.183a3.674 3.674 0 0 1 3.678 3.678v57.896c0 2.004-1.642 3.678-3.678 3.678h-18.183c-2.018 0-3.678-1.674-3.678-3.678V318.83a3.685 3.685 0 0 1 3.678-3.678zM105.176 89.788h218.905V67.479H78.784v22.309h26.392zM90.313 302.92c1.004-.209 1.839-.688 2.467-1.436.642-.747.958-1.613.958-2.631 0-.897-.27-1.675-.807-2.333-.523-.628-1.407-1.136-2.618-1.495v7.895zm-2.931-21.471a3.625 3.625 0 0 0-1.87 1.405 3.505 3.505 0 0 0-.685 2.124c0 .717.207 1.375.625 1.974.421.597 1.063 1.105 1.93 1.495v-6.998zm52.798-162.295a3.685 3.685 0 0 1-3.678-3.678 3.685 3.685 0 0 1 3.678-3.678h118.199a3.673 3.673 0 0 1 3.664 3.678 3.673 3.673 0 0 1-3.664 3.678H140.18zm0 19.141c-2.018 0-3.678-1.645-3.678-3.679s1.66-3.679 3.678-3.679h174.66c2.019 0 3.664 1.645 3.664 3.679s-1.646 3.679-3.664 3.679H140.18zm0 19.109c-2.018 0-3.678-1.646-3.678-3.649a3.686 3.686 0 0 1 3.678-3.679h246.91a3.686 3.686 0 0 1 3.679 3.679c0 2.003-1.66 3.649-3.679 3.649H140.18zm0 19.139a3.686 3.686 0 0 1-3.678-3.679c0-2.003 1.66-3.649 3.678-3.649h246.91c2.019 0 3.679 1.646 3.679 3.649a3.687 3.687 0 0 1-3.679 3.679H140.18zm0 19.139a3.685 3.685 0 0 1-3.678-3.678c0-2.004 1.66-3.68 3.678-3.68h246.91c2.019 0 3.679 1.676 3.679 3.68a3.686 3.686 0 0 1-3.679 3.678H140.18zm0 19.139c-2.018 0-3.678-1.646-3.678-3.679s1.66-3.678 3.678-3.678h246.91c2.019 0 3.679 1.645 3.679 3.678s-1.66 3.679-3.679 3.679H140.18zm-29.666 153.202a3.676 3.676 0 0 1 3.678-3.678 3.674 3.674 0 0 1 3.678 3.678v11.723c0 2.004-1.643 3.648-3.678 3.648-2.032 0-3.678-1.645-3.678-3.648v-11.723zm17.944 0a3.675 3.675 0 0 1 3.678-3.678 3.676 3.676 0 0 1 3.678 3.678v11.723c0 2.004-1.646 3.648-3.678 3.648-2.036 0-3.678-1.645-3.678-3.648v-11.723zm17.944 0a3.675 3.675 0 0 1 3.678-3.678 3.685 3.685 0 0 1 3.678 3.678v11.723c0 2.004-1.66 3.648-3.678 3.648-2.035 0-3.678-1.645-3.678-3.648v-11.723zm17.94 0a3.676 3.676 0 0 1 3.678-3.678 3.675 3.675 0 0 1 3.678 3.678v11.723c0 2.004-1.643 3.648-3.678 3.648-2.032 0-3.678-1.645-3.678-3.648v-11.723zm-77.377 33.076a3.675 3.675 0 0 1 3.678-3.679 3.674 3.674 0 0 1 3.664 3.679v11.723a3.674 3.674 0 0 1-3.664 3.679 3.675 3.675 0 0 1-3.678-3.679v-11.723zm17.94 0a3.671 3.671 0 1 1 7.343 0v11.723a3.672 3.672 0 0 1-3.661 3.679 3.678 3.678 0 0 1-3.682-3.679v-11.723zm17.945 0a3.677 3.677 0 0 1 3.678-3.679 3.674 3.674 0 0 1 3.664 3.679v11.723a3.674 3.674 0 0 1-3.664 3.679 3.677 3.677 0 0 1-3.678-3.679v-11.723zm17.943 0a3.672 3.672 0 0 1 3.664-3.679 3.677 3.677 0 0 1 3.678 3.679v11.723a3.677 3.677 0 0 1-3.678 3.679 3.672 3.672 0 0 1-3.664-3.679v-11.723zm-76.84-66.18c0-2.003 1.643-3.649 3.678-3.649 2.032 0 3.678 1.646 3.678 3.649v11.723a3.676 3.676 0 0 1-3.678 3.678 3.674 3.674 0 0 1-3.678-3.678v-11.723zm17.941 0c0-2.003 1.646-3.649 3.682-3.649 2.032 0 3.678 1.646 3.678 3.649v11.723a3.676 3.676 0 0 1-3.678 3.678 3.677 3.677 0 0 1-3.682-3.678v-11.723zm17.944 0c0-2.003 1.646-3.649 3.678-3.649 2.036 0 3.678 1.646 3.678 3.649v11.723a3.674 3.674 0 0 1-3.678 3.678 3.676 3.676 0 0 1-3.678-3.678v-11.723zm17.944 0c0-2.003 1.643-3.649 3.678-3.649 2.032 0 3.678 1.646 3.678 3.649v11.723a3.676 3.676 0 0 1-3.678 3.678 3.673 3.673 0 0 1-3.678-3.678v-11.723zm102.365 60.438a3.675 3.675 0 0 1-3.678-3.678 3.676 3.676 0 0 1 3.678-3.68h175.121a3.676 3.676 0 0 1 3.678 3.68 3.675 3.675 0 0 1-3.678 3.678H220.147zm245.893-93.512a3.674 3.674 0 0 1-3.664 3.678 3.675 3.675 0 0 1-3.678-3.678V64.997h-79.206l58.841 58.823v295.999H172.762V394.1h19.962c2.018 0 3.664-1.674 3.664-3.678v-33.075a3.673 3.673 0 0 0-3.664-3.678H149.15v-29.427c0-2.004-1.657-3.649-3.678-3.649h-34.719a37.91 37.91 0 0 0 3.081-2.751 34.31 34.31 0 0 0 9.286-16.986l.014-.089c.193-.896.358-1.824.478-2.752l.031-.148v-.12l.028-.269.018-.03.014-.27.027-.178v-.09l.032-.3.014-.03.018-.238.028-.209v-.09l.014-.27.018-.061v-.208l.014-.239v-.061l.014-.299v-.09l.014-.18v-.27l.018-.029v-1.705l-.018-.03v-.27l-.014-.18v-.089l-.014-.3v-.059l-.014-.21v-.209l-.018-.089-.014-.271v-.089l-.028-.209-.018-.239-.014-.029-.032-.3v-.09l-.028-.179-.014-.271h-.018l-.028-.298v-.119l-.031-.15a33.566 33.566 0 0 0-.478-2.75l-.014-.091a34.306 34.306 0 0 0-9.286-16.986 34.888 34.888 0 0 0-4.875-4.036V97.145h218.785c2.033 0 3.679-1.674 3.679-3.678V63.801a3.677 3.677 0 0 0-3.679-3.678H108.959V37.814l243.366.029 19.856 19.827h90.194a3.673 3.673 0 0 1 3.664 3.679v240.496zM361.355 435.967a3.673 3.673 0 0 1 3.664 3.68 3.673 3.673 0 0 1-3.664 3.679H88.772a3.686 3.686 0 0 1-3.678-3.679l.298-19.827H69.305v-25.719h96.115v25.719H92.752l-.302 16.147h268.905zm93.455-77.483a3.686 3.686 0 0 1 3.678-3.679 3.678 3.678 0 0 1 3.679 3.679v81.162a3.678 3.678 0 0 1-3.679 3.679h-56.461a3.677 3.677 0 0 1-3.678-3.679 3.678 3.678 0 0 1 3.678-3.68h52.783v-77.482zM52.273 459.353c-2.018 0-3.678-1.644-3.678-3.678s1.66-3.678 3.678-3.678h307.018c2.036 0 3.682 1.644 3.682 3.678s-1.646 3.678-3.682 3.678H52.273zm169.278 14.833a3.676 3.676 0 0 1-3.678-3.678 3.676 3.676 0 0 1 3.678-3.678h212.476a3.672 3.672 0 0 1 3.664 3.678 3.674 3.674 0 0 1-3.664 3.678H221.551zm234.217 0a3.678 3.678 0 1 1 0-7.356h26.553a3.674 3.674 0 0 1 3.679 3.678 3.675 3.675 0 0 1-3.679 3.678h-26.553zm-426.085-.479a3.677 3.677 0 0 1-3.681-3.678c0-2.004 1.646-3.679 3.681-3.679h100.66c2.032 0 3.678 1.675 3.678 3.679a3.676 3.676 0 0 1-3.678 3.678H29.683zm80.143-199.375a26.933 26.933 0 0 0-19.137-7.925 27.001 27.001 0 0 0-19.169 7.925 26.97 26.97 0 0 0-7.924 19.169 26.955 26.955 0 0 0 7.924 19.139c4.903 4.905 11.676 7.954 19.169 7.954 5.054 0 9.777-1.405 13.831-3.797l.042-.029a26.36 26.36 0 0 0 5.264-4.128 27.033 27.033 0 0 0 7.388-13.606v-.09l.028-.119.046-.21.119-.658.032-.209.014-.119.031-.12.028-.21v-.03l.031-.208.014-.12.014-.089.032-.21v-.03l.014-.209.014-.149v-.06l.032-.239v-.029l.014-.181.014-.179v-.029l.014-.24.018-.06v-.149l.014-.209v-.03l.014-.239v-.21l.017-.209v-1.404l-.017-.209v-.211l-.014-.238v-.029l-.014-.18v-.18l-.018-.06-.014-.21v-.06l-.014-.179-.014-.18v-.03l-.032-.239v-.06l-.014-.149-.014-.18v-.06l-.032-.21-.014-.09-.014-.119-.031-.209v-.03l-.028-.21-.031-.09-.014-.119-.032-.239-.119-.657-.046-.18-.028-.15v-.09a27.05 27.05 0 0 0-7.388-13.608z" fill-rule="evenodd" clip-rule="evenodd" fill="#FD6262" data-color="1"/>
    </g>
</svg>
