<?xml version="1.0" encoding="UTF-8"?>
<svg data-bbox="6 4 52 54" stroke="#00000" xmlns="http://www.w3.org/2000/svg" viewBox="0 0 64 64" height="800" width="800" data-type="ugc">
    <g fill-rule="evenodd" stroke="none">
        <path fill="#FD6262" d="M20 58c1.433 0 14-.112 14-4V30c0-3.888-12.567-4-14-4-1.433 0-14 .112-14 4v24c0 3.888 12.567 4 14 4Zm0-2c-7.139 0-11.485-1.309-12-2.068v-5.661C11.606 49.937 18.927 50 20 50c1.073 0 8.394-.063 12-1.729v5.661C31.485 54.691 27.139 56 20 56Zm12-18.07c-.51.759-4.857 2.07-12 2.07S8.51 38.689 8 37.93v-5.659C11.606 33.937 18.927 34 20 34c1.073 0 8.394-.063 12-1.729v5.659ZM20 42c1.073 0 8.394-.063 12-1.729v5.659c-.51.759-4.857 2.07-12 2.07S8.51 46.689 8 45.93v-5.659C11.606 41.937 18.927 42 20 42Zm0-14c6.929 0 11.228 1.233 11.945 2-.717.767-5.016 2-11.945 2S8.772 30.767 8.055 30c.717-.767 5.016-2 11.945-2Z"/>
        <path fill="#FD6262" d="M30 20v4.167a1 1 0 0 0 2 0v-1.896C35.606 23.937 42.927 24 44 24c1.073 0 8.394-.063 12-1.729v5.659c-.51.759-4.857 2.07-12 2.07-2.447 0-4.819-.16-6.86-.462a1 1 0 1 0-.293 1.979c2.136.316 4.61.483 7.153.483 1.073 0 8.394-.063 12-1.729v5.659c-.51.759-4.857 2.07-12 2.07-2.443 0-4.813-.159-6.853-.46a1 1 0 1 0-.292 1.978C38.99 39.833 41.46 40 44 40c1.073 0 8.394-.063 12-1.729v5.661C55.485 44.691 51.139 46 44 46c-2.443 0-4.813-.159-6.853-.46a1 1 0 1 0-.292 1.978C38.99 47.833 41.46 48 44 48c1.433 0 14-.112 14-4V20c0-3.888-12.567-4-14-4-1.433 0-14 .112-14 4Zm14-2c6.929 0 11.228 1.233 11.945 2-.717.767-5.016 2-11.945 2s-11.228-1.233-11.945-2c.717-.767 5.016-2 11.945-2Z"/>
        <path fill="#FD6262" d="M20.293 23.707a.994.994 0 0 0 .325.216.991.991 0 0 0 1.089-.216l5-5a.999.999 0 1 0-1.414-1.414L22 20.586V19c0-7.168 4.486-13 10-13 3.806 0 7.341 2.888 9.007 7.356a1 1 0 0 0 1.874-.698C40.921 7.398 36.649 4 32 4c-6.617 0-12 6.729-12 15v1.586l-3.293-3.293a.999.999 0 1 0-1.414 1.414l5 5Z"/>
    </g>
</svg>
