<svg version="1.1" id="Layer_1" xmlns="http://www.w3.org/2000/svg" xmlns:xlink="http://www.w3.org/1999/xlink" x="0px" y="0px"
	 width="100%" viewBox="0 0 512 512" enable-background="new 0 0 512 512" xml:space="preserve">
<path fill="#1B1C1E" opacity="1.000000" stroke="none" 
	d="
M1.000000,178.000000 
	C1.000000,120.000000 1.038802,62.499908 0.902942,5.000229 
	C0.894849,1.575253 1.576367,0.903139 5.000061,0.905342 
	C172.999985,1.013444 341.000000,1.013444 508.999939,0.905342 
	C512.423645,0.903139 513.096802,1.576367 513.094604,5.000061 
	C512.986511,172.999985 512.986511,341.000000 513.094604,508.999939 
	C513.096802,512.423645 512.423645,513.096802 508.999939,513.094604 
	C341.000000,512.986511 172.999985,512.986511 5.000061,513.094604 
	C1.576367,513.096802 0.901053,512.423889 0.904652,508.999908 
	C1.020439,398.833374 1.000000,288.666656 1.000000,178.000000 
z"/>
<path fill="#FA6262" opacity="1.000000" stroke="none" 
	d="
M27.973427,190.006912 
	C28.719906,109.222084 84.773453,39.069576 163.856522,21.228430 
	C267.850769,-2.232680 363.919861,68.905724 376.717010,169.351303 
	C382.329529,213.404251 372.541779,254.052841 347.571686,290.883545 
	C345.715729,293.621033 345.196991,295.258179 347.963470,297.849945 
	C354.891144,304.340240 361.471863,311.204376 368.103180,318.004944 
	C369.771301,319.715668 370.942871,320.984894 373.152161,318.511292 
	C376.271637,315.018585 379.450104,315.794800 382.574646,318.923462 
	C420.965851,357.365295 459.505249,395.659973 497.750000,434.246796 
	C511.877563,448.500702 511.304779,471.317413 497.200745,485.657318 
	C483.298157,499.792511 460.227722,500.615692 445.837524,486.588806 
	C419.226837,460.649933 393.077362,434.237610 366.765778,407.992401 
	C354.848785,396.105499 342.983398,384.166656 331.136169,372.210175 
	C326.665192,367.698029 326.470978,365.961517 330.378967,361.190277 
	C331.715546,359.558472 331.361877,358.891083 330.120605,357.672028 
	C322.749084,350.432312 315.365112,343.201691 308.164276,335.794067 
	C306.204865,333.778381 304.979401,334.495667 303.149109,335.764343 
	C283.473389,349.402924 261.983368,359.217010 238.442764,363.458984 
	C180.033493,373.984222 127.891022,360.448151 83.911079,320.012512 
	C46.193607,285.334686 28.280283,241.594589 27.973427,190.006912 
z"/>
<path fill="#1E1D1F" opacity="1.000000" stroke="none" 
	d="
M65.978821,281.996246 
	C31.838066,225.663925 29.241671,168.159088 61.156658,110.989769 
	C87.972076,62.955307 130.425034,35.685097 185.147568,29.288153 
	C269.335175,19.446804 347.115723,76.610321 363.719086,159.604828 
	C381.543579,248.703415 323.436920,336.179077 234.484406,352.465515 
	C177.915924,362.822723 128.359482,347.518524 86.820648,307.294739 
	C78.997643,299.719360 72.214745,291.324280 65.978821,281.996246 
z"/>
<path fill="#1C1C1E" opacity="1.000000" stroke="none" 
	d="
M383.453613,364.458008 
	C387.418182,360.389832 391.250580,356.676483 394.807220,352.715485 
	C396.776184,350.522644 398.012482,350.276978 400.216614,352.582245 
	C407.003723,359.680939 414.055328,366.526764 421.004700,373.470306 
	C443.503174,395.949615 466.080444,418.350800 488.471344,440.936737 
	C502.195068,454.780029 497.800537,476.805542 479.946472,483.526947 
	C469.852448,487.326965 460.518219,485.223206 452.790802,477.626740 
	C439.966797,465.020081 427.319733,452.233459 414.592896,439.527924 
	C397.977386,422.940338 381.414124,406.299561 364.676910,389.835663 
	C362.153015,387.353027 362.207550,386.039673 364.692841,383.632263 
	C371.028870,377.494873 377.055756,371.038269 383.453613,364.458008 
z"/>
<path fill="#1E1D1F" opacity="1.000000" stroke="none" 
	d="
M315.790039,326.907806 
	C322.615723,319.613312 330.122772,313.249023 336.272644,305.563293 
	C337.612122,303.889313 338.576294,304.334351 339.854248,305.630035 
	C346.980804,312.855652 354.120331,320.069885 361.364532,327.176819 
	C362.695557,328.482635 362.465118,329.168701 361.325623,330.297821 
	C354.826019,336.738281 348.336121,343.189789 341.938873,349.731384 
	C340.388367,351.316895 339.465668,351.152100 337.975739,349.617859 
	C330.678467,342.103607 323.261047,334.706085 315.790039,326.907806 
z"/>
<path fill="#1F1D1F" opacity="1.000000" stroke="none" 
	d="
M380.357483,351.355774 
	C372.218964,359.720581 364.261200,367.769440 356.479736,375.985229 
	C354.444611,378.133911 353.052979,378.643677 350.986938,376.120789 
	C348.164429,372.674164 342.620972,370.132935 342.470093,366.243469 
	C342.328705,362.599823 347.736359,359.910919 350.742828,356.852234 
	C358.792267,348.663025 367.031067,340.659424 375.043396,332.434723 
	C377.026886,330.398651 378.126190,330.523163 380.120941,332.454498 
	C389.698395,341.727570 389.760101,341.663818 380.357483,351.355774 
z"/>
<path fill="#FA6262" opacity="1.000000" stroke="none" 
	d="
M266.924835,63.102051 
	C314.059113,88.265800 341.420319,126.786797 346.047180,179.894897 
	C351.904541,247.127136 312.249298,307.676971 247.957260,328.222229 
	C195.059372,345.126343 146.830078,334.317444 105.376534,297.133087 
	C45.882824,243.766418 41.675518,145.534470 105.752434,86.169250 
	C135.669754,58.451797 171.631210,46.326267 212.440277,48.684776 
	C231.478271,49.785053 249.506744,54.508884 266.924835,63.102051 
z"/>
<path fill="#1D1D1F" opacity="1.000000" stroke="none" 
	d="
M163.661057,65.541382 
	C204.855209,53.966000 243.314362,58.946678 278.429474,83.141022 
	C309.307831,104.416206 327.889282,134.054031 333.751068,171.086548 
	C342.370941,225.543915 316.766815,278.831879 269.386047,306.499237 
	C219.355499,335.713959 154.814316,328.210968 112.465218,288.257141 
	C52.341011,231.533478 57.911308,134.714554 124.264725,85.394714 
	C136.079697,76.612755 149.017822,69.756790 163.661057,65.541382 
z"/>
<path fill="#FE6464" opacity="1.000000" stroke="none" 
	d="
M237.655121,178.133270 
	C241.655792,168.180283 247.770325,164.024887 258.041321,164.002701 
	C262.198822,163.993713 266.360840,163.881729 270.513000,164.032547 
	C280.455231,164.393646 288.421265,172.185150 288.976654,182.121735 
	C289.208435,186.267838 288.889954,190.450653 289.231476,194.582901 
	C289.543457,198.357895 288.235779,200.301025 284.523529,201.380722 
	C269.336487,205.797775 254.315628,204.729858 239.312408,200.573517 
	C237.650116,200.113022 236.851578,199.268585 236.949966,197.419815 
	C237.284897,191.126221 236.375610,184.794495 237.655121,178.133270 
z"/>
<path fill="#F76262" opacity="1.000000" stroke="none" 
	d="
M124.680290,241.999359 
	C124.680298,209.681290 124.679794,177.863235 124.681717,146.045197 
	C124.681808,144.546066 124.690414,143.046707 124.718048,141.547882 
	C124.757500,139.408356 125.657623,137.975647 127.986633,138.049179 
	C130.278534,138.121567 131.123550,139.608551 131.157120,141.710312 
	C131.178406,143.042664 131.183792,144.375397 131.183838,145.707962 
	C131.185272,183.356537 131.251511,221.005386 131.091843,258.653290 
	C131.074112,262.838867 132.260834,263.925751 136.388809,263.909424 
	C174.869720,263.757019 213.351486,263.819000 251.832993,263.820648 
	C253.332108,263.820709 254.831223,263.840363 256.330353,263.847351 
	C258.810089,263.858887 260.748901,264.824463 260.693634,267.511505 
	C260.641022,270.069183 258.544830,270.604034 256.389313,270.617859 
	C251.725098,270.647797 247.060608,270.640991 242.396225,270.641144 
	C205.414001,270.642334 168.431763,270.646545 131.449539,270.637115 
	C124.789032,270.635406 124.693855,270.524750 124.683083,263.988892 
	C124.671288,256.825714 124.680313,249.662552 124.680290,241.999359 
z"/>
<path fill="#F46161" opacity="1.000000" stroke="none" 
	d="
M147.137100,221.999939 
	C147.137192,199.358475 147.242813,177.216080 147.047516,155.076355 
	C147.008896,150.696869 148.311371,149.238388 152.714996,149.380280 
	C165.349380,149.787384 163.471527,147.804153 163.512924,160.302734 
	C163.604462,187.937622 163.421799,215.574036 163.651993,243.207306 
	C163.692886,248.115967 162.195694,249.441315 157.443085,249.297531 
	C147.144241,248.985947 147.137115,249.220779 147.137100,238.981201 
	C147.137085,233.487442 147.137100,227.993698 147.137100,221.999939 
z"/>
<path fill="#FA6263" opacity="1.000000" stroke="none" 
	d="
M178.824371,184.002258 
	C178.825974,179.012543 178.928467,174.519211 178.789948,170.033295 
	C178.711395,167.489944 179.623840,166.616943 182.202484,166.438126 
	C194.850571,165.560974 194.845581,165.488220 194.845520,177.819214 
	C194.845398,199.937759 194.757553,222.056976 194.926926,244.174225 
	C194.956924,248.090912 193.864700,249.319977 189.879166,249.269714 
	C178.826645,249.130310 178.824387,249.308838 178.824387,238.384506 
	C178.824387,220.423584 178.824387,202.462662 178.824371,184.002258 
z"/>
<path fill="#F26060" opacity="1.000000" stroke="none" 
	d="
M238.100525,91.322586 
	C242.252762,85.691856 246.874130,84.468712 251.509293,87.447060 
	C255.706329,90.143898 256.916077,95.268272 254.382217,99.711426 
	C252.189667,103.556107 248.664124,104.914703 244.614380,103.946785 
	C241.906311,103.299530 240.331619,104.196449 238.523590,105.863235 
	C234.364044,109.697853 230.065018,113.382324 225.789886,117.090004 
	C222.914581,119.583679 220.386658,121.972099 219.434601,126.155144 
	C218.433105,130.555359 214.345642,132.234680 209.990982,131.726212 
	C205.599518,131.213440 202.350891,128.569580 202.172226,124.016258 
	C202.043243,120.729431 200.545609,118.857162 198.331497,116.998779 
	C195.654160,114.751625 193.035385,112.431679 190.450500,110.078163 
	C187.253113,107.167007 184.561646,103.464668 179.628983,108.122940 
	C177.344330,110.280472 173.621994,109.459084 171.251709,107.466972 
	C168.700989,105.323212 167.305130,106.409691 165.441147,108.126205 
	C161.645905,111.621185 157.745880,115.004349 153.838089,118.374504 
	C150.639664,121.132896 147.539261,123.237267 148.428085,128.826355 
	C149.278015,134.170761 143.455261,138.023666 137.880829,137.144058 
	C132.708740,136.327942 129.281281,131.561264 130.354446,126.676842 
	C131.598648,121.013924 136.660202,117.567657 141.900604,119.575874 
	C144.909256,120.728836 146.458923,119.790672 148.410767,117.984634 
	C152.319687,114.367691 156.406418,110.943756 160.360001,107.373978 
	C163.595413,104.452652 167.224762,102.164368 167.680267,96.818687 
	C168.005936,92.996468 171.649170,90.828064 175.769272,90.714493 
	C179.823807,90.602730 183.466278,92.276688 184.371658,96.159935 
	C185.386581,100.513039 188.258667,102.899338 191.188553,105.524048 
	C193.420624,107.523613 195.712250,109.457626 197.918869,111.484505 
	C200.915207,114.236755 203.432968,117.413101 208.341034,114.118904 
	C210.814270,112.458900 214.367447,113.298073 216.694122,115.537521 
	C218.837570,117.600609 220.338699,117.111191 222.050949,115.236931 
	C222.721085,114.503395 223.547882,113.915596 224.271332,113.227753 
	C230.625931,107.185936 239.979706,103.046898 238.100525,91.322586 
z"/>
<path fill="#FA6263" opacity="1.000000" stroke="none" 
	d="
M304.762390,186.950867 
	C303.524933,187.161255 302.702850,187.293060 301.885773,187.450638 
	C293.842255,189.001801 293.937225,188.989288 292.771912,180.953964 
	C291.566284,172.640717 287.209991,166.428207 279.585846,162.786591 
	C277.291016,161.690460 276.242218,160.806091 278.391357,158.650452 
	C278.849396,158.191055 279.052765,157.486786 279.479736,156.985901 
	C281.641754,154.449356 280.432007,149.096497 283.427368,148.555099 
	C288.862793,147.572647 294.694305,147.433655 300.263092,148.931839 
	C308.008209,151.015564 313.498413,157.243042 314.228180,165.276703 
	C314.678650,170.235321 314.433990,175.253342 314.672638,180.236496 
	C314.795288,182.797791 313.890747,184.343307 311.388062,185.011063 
	C309.300720,185.567947 307.248077,186.254913 304.762390,186.950867 
z"/>
<path fill="#FB6363" opacity="1.000000" stroke="none" 
	d="
M208.835709,245.819153 
	C208.829910,230.340057 208.916824,215.345596 208.762405,200.353622 
	C208.727310,196.947617 209.643005,195.755646 213.219833,195.746918 
	C224.842728,195.718567 224.842575,195.573883 224.842346,207.193161 
	C224.842102,219.687805 224.736130,232.183884 224.908875,244.676132 
	C224.957108,248.163483 223.871689,249.522598 220.353470,249.219543 
	C217.541931,248.977371 214.691818,249.104980 211.861847,249.181030 
	C209.803299,249.236328 208.685638,248.485611 208.835709,245.819153 
z"/>
<path fill="#FB6363" opacity="1.000000" stroke="none" 
	d="
M278.179321,144.794235 
	C278.821350,153.805725 275.080292,159.771713 267.601990,162.121613 
	C260.813293,164.254807 253.562607,161.491608 249.978745,155.405518 
	C246.385910,149.304184 247.367218,141.522171 252.347244,136.622772 
	C260.932129,128.176865 274.255035,132.199875 278.179321,144.794235 
z"/>
<path fill="#FB6363" opacity="1.000000" stroke="none" 
	d="
M274.543945,125.701042 
	C279.236053,117.541367 286.898773,114.530212 294.478363,117.613365 
	C301.264008,120.373566 305.293427,128.112167 303.574554,135.082809 
	C301.684143,142.749054 294.729095,147.691345 286.882721,146.999344 
	C284.009979,146.745987 281.919952,145.838531 281.342987,142.550522 
	C280.753693,139.192215 279.030121,136.065552 276.326477,134.175659 
	C272.935150,131.805084 273.132355,129.190613 274.543945,125.701042 
z"/>
<path fill="#F66161" opacity="1.000000" stroke="none" 
	d="
M239.141296,226.137436 
	C239.166336,218.822525 239.166336,218.822525 245.837860,218.815567 
	C255.534775,218.805466 255.535477,218.805466 255.534836,228.661484 
	C255.534470,233.982010 255.410843,239.306213 255.573074,244.621719 
	C255.674927,247.959488 254.619873,249.251892 251.032928,249.274353 
	C239.140381,249.348846 239.141266,249.492004 239.141266,237.593475 
	C239.141266,233.935608 239.141281,230.277740 239.141296,226.137436 
z"/>
<path fill="#282022" opacity="1.000000" stroke="none" 
	d="
M251.616272,96.476028 
	C249.941223,100.030746 247.389633,101.385811 244.158112,99.792068 
	C241.529663,98.495750 240.367188,95.967201 241.610535,93.048645 
	C242.735748,90.407356 245.036499,89.354279 247.771210,90.062508 
	C250.763916,90.837540 252.009903,93.052971 251.616272,96.476028 
z"/>
<path fill="#282022" opacity="1.000000" stroke="none" 
	d="
M143.863892,131.039474 
	C142.264877,133.070984 140.416275,133.662903 138.342224,133.187912 
	C135.044220,132.432602 133.567291,130.091370 134.216965,126.927460 
	C134.843262,123.877319 137.319550,122.494186 140.240082,123.237740 
	C144.026001,124.201599 145.807877,126.667763 143.863892,131.039474 
z"/>
<path fill="#282022" opacity="1.000000" stroke="none" 
	d="
M173.223709,95.450439 
	C176.304291,94.099976 178.811020,94.325638 180.482651,97.055481 
	C181.957916,99.464615 181.680054,101.950096 179.535385,103.796463 
	C177.206879,105.801071 174.539810,105.794640 172.430054,103.474960 
	C170.048981,100.857002 170.162888,98.106277 173.223709,95.450439 
z"/>
<path fill="#282022" opacity="1.000000" stroke="none" 
	d="
M210.239822,127.906036 
	C205.413223,125.117012 204.530640,120.907791 207.919266,118.426743 
	C209.666855,117.147217 211.612869,116.915718 213.534317,118.031334 
	C215.583008,119.220818 216.687744,121.037247 216.234039,123.435402 
	C215.663177,126.452774 213.763718,128.021759 210.239822,127.906036 
z"/>
</svg>